<?xml version="1.0" encoding="UTF-8" standalone="no"?>
<svg
   width="1200"
   height="425"
   viewBox="0 0 1200 425"
   fill="none"
   version="1.1"
   id="svg28"
   sodipodi:docname="top-logo.svg"
   inkscape:version="1.1.2 (0a00cf5339, 2022-02-04)"
   inkscape:label="container"
   xmlns:inkscape="http://www.inkscape.org/namespaces/inkscape"
   xmlns:sodipodi="http://sodipodi.sourceforge.net/DTD/sodipodi-0.dtd"
   xmlns="http://www.w3.org/2000/svg"
   xmlns:svg="http://www.w3.org/2000/svg">
  <defs
     id="defs32" />
  <sodipodi:namedview
     id="namedview30"
     pagecolor="#505050"
     bordercolor="#eeeeee"
     borderopacity="1"
     inkscape:pageshadow="0"
     inkscape:pageopacity="0"
     inkscape:pagecheckerboard="0"
     showgrid="false"
     inkscape:zoom="0.5510259"
     inkscape:cx="471.84715"
     inkscape:cy="104.35081"
     inkscape:window-width="1850"
     inkscape:window-height="1016"
     inkscape:window-x="0"
     inkscape:window-y="0"
     inkscape:window-maximized="1"
     inkscape:current-layer="svg28"
     showguides="false" />
  <g
     id="g882">
    <rect
       style="fill:#353535;fill-opacity:1;fill-rule:evenodd;stroke:#ffffff;stroke-width:3.59614;stroke-linecap:round;stroke-linejoin:bevel"
       id="rect8974"
       width="1196.4896"
       height="421.42575"
       x="1.806597"
       y="1.7241247"
       inkscape:label="bg" />
    <g
       id="g926"
       inkscape:label="odin"
       transform="matrix(6.3157699,0,0,6.6424018,18.999727,18.208192)">
      <path
         fill-rule="evenodd"
         clip-rule="evenodd"
         d="M 8.68945,34.7331 13.1482,19.2902 h 17.8351 l 4.4587,15.4429 z"
         fill="#eed9c3"
         id="path2" />
      <ellipse
         cx="27.784901"
         cy="27.122299"
         rx="1.2600501"
         ry="1.2428401"
         fill="#353535"
         id="ellipse4" />
      <path
         fill-rule="evenodd"
         clip-rule="evenodd"
         d="m 19.446,25.7092 c 0,-0.434 -0.3569,-0.7859 -0.7967,-0.7859 -1.0113,0 -2.7459,0 -3.7571,0 -0.4399,0 -0.7967,0.3519 -0.7967,0.7859 0,0.6764 0,1.6624 0,2.4334 0,0.6509 0.535,1.1786 1.1947,1.1786 0.4093,0 0.8861,0 1.3676,0 0.7395,0 1.4484,-0.2898 1.9717,-0.8057 0.5227,-0.5154 0.8165,-1.2151 0.8165,-1.9443 0,-0.3127 0,-0.6091 0,-0.862 z"
         fill="#a78347"
         id="path6"
         inkscape:label="path6" />
      <path
         fill-rule="evenodd"
         clip-rule="evenodd"
         d="M 35.0004,4.5308 43.8517,0 l -4.8515,18 -4,4 z"
         fill="#e3b261"
         id="path8" />
      <path
         fill-rule="evenodd"
         clip-rule="evenodd"
         d="M 8.8514,4.5308 1.32561e-4,0 4.85156,18 l 4,4 z"
         fill="#e3b261"
         id="path10" />
      <path
         fill-rule="evenodd"
         clip-rule="evenodd"
         d="m 35.442,12.7438 c 0,0 -6.6881,-4.39791 -13.3763,-4.39791 -6.6881,0 -13.37625,4.39791 -13.37625,4.39791 v 13.1935 l 1.78355,3.5183 c 1.2797,-4.8627 7.0715,-6.8884 11.103,-3.8833 l 0.4897,0.365 0.4897,-0.365 c 4.0316,-3.0051 9.8234,-0.9794 11.1031,3.8833 l 1.7835,-3.5183 z"
         fill="#e3b261"
         id="path12" />
      <path
         fill-rule="evenodd"
         clip-rule="evenodd"
         d="m 17.6068,32.5341 -3.567,20.67 L 9.12134,49.6858 13.148,34.7331 Z"
         fill="#d4d4d4"
         id="path14" />
      <path
         fill-rule="evenodd"
         clip-rule="evenodd"
         d="m 26.5243,32.5341 3.567,20.67 4.9185,-3.5183 -4.0267,-14.9527 z"
         fill="#d5d5d5"
         id="path16" />
      <path
         fill-rule="evenodd"
         clip-rule="evenodd"
         d="M 8.68933,25.9373 5.12231,39.1309 9.58108,47.9267 13.1481,34.7331 Z"
         fill="#e6e6e6"
         id="path18" />
      <path
         fill-rule="evenodd"
         clip-rule="evenodd"
         d="M 35.4418,25.9373 39.0088,39.1309 34.55,47.9267 30.983,34.7331 Z"
         fill="#e6e6e6"
         id="path20" />
      <path
         fill-rule="evenodd"
         clip-rule="evenodd"
         d="m 17.6069,32.5341 -4.0129,21.5496 8.4716,4.3978 8.4717,-4.3978 -4.0129,-21.5496 -4.1261,-2.0349 -0.3327,-0.164 z"
         fill="#e6e6e6"
         id="path22" />
      <path
         fill-rule="evenodd"
         clip-rule="evenodd"
         d="m 23.6636,33.4137 h -3.1211 c 0,0 0,0.5211 0,1.1003 0,0.4082 0.1645,0.7991 0.457,1.0876 0.2925,0.2885 0.6889,0.4508 1.1027,0.4508 4e-4,0 0.0013,0 0.0017,0 0.4138,0 0.8102,-0.1623 1.1027,-0.4508 0.2925,-0.2885 0.457,-0.6794 0.457,-1.0876 0,-0.5792 0,-1.1003 0,-1.1003 z"
         fill="#353535"
         id="path24" />
    </g>
    <path
       d="m 332.47326,149.02047 -7.11573,0.51963 c -2.16568,0 -4.17662,0 -6.49697,-0.17316 -1.23751,0 -2.62976,1.21243 -3.55786,1.21243 l -2.93911,-1.38564 -15.00494,-0.86602 -0.46421,14.20279 1.85627,2.07845 9.43607,-0.3464 c 0.46421,0 1.39225,-0.17324 2.47509,-0.51964 l 0.77343,-0.86602 3.40319,0.51964 0.9281,7.10139 -0.61894,11.0851 0.92816,8.14063 -0.77343,35.33376 -0.77349,24.42187 1.39225,1.73205 -2.32035,10.9119 v 13.33676 l 8.19856,1.38564 4.33129,-0.86603 4.48603,-2.77127 -1.23751,-12.29753 v -32.5625 l -1.85627,-3.29089 0.15474,-0.17317 1.39218,-10.39228 -0.15473,-13.33677 v -2.94448 c 0,-1.21243 -0.15474,-2.77128 -0.15474,-4.15691 -0.15474,-1.03923 -0.15474,-5.36935 -0.15474,-6.92819 l 0.30948,-12.81715 -0.61895,-3.81051 0.92817,-7.2746 h 4.79537 l 4.6407,0.3464 1.54686,0.51964 h 6.96105 l 0.46421,-8.14062 -0.9281,-7.2746 z m 28.71951,98.20709 0.30947,10.91189 2.16561,2.59807 -2.47502,3.29089 -0.46421,11.60472 9.74549,1.03923 6.34229,-0.3464 0.15474,-6.40858 -0.46421,-7.79421 -0.92817,-9.17985 0.15474,-0.51964 0.77343,-30.13763 12.06584,-5.71575 h 0.15473 l 8.97206,-2.25166 -0.15474,3.11768 0.46421,2.42487 -0.30947,26.67353 2.32035,2.77128 -1.54692,1.55884 -1.08284,19.39893 2.01094,6.06217 h 8.97206 l 5.72354,-0.3464 -0.30948,-9.52626 -1.08283,-4.33012 -0.30948,-22.1702 -0.30947,-31.00365 -0.30947,-3.4641 -0.46421,-7.79421 0.77343,-16.28125 -1.39219,-5.02294 1.54686,-2.25166 0.15474,-6.58178 v 0.17317 l 0.9281,-9.87267 0.46421,-8.66023 -8.81732,-0.34641 -5.72354,-0.17323 -2.32035,5.02294 0.77349,6.92819 0.30947,15.58843 0.46421,15.76163 -0.61894,4.67653 -1.7016,0.86602 -2.9391,1.55885 -6.3423,3.11768 -1.39225,1.90525 -2.47502,-1.03923 -6.49697,2.59807 -0.30948,0.17324 -1.39218,-16.80086 0.61895,-11.43152 -1.7016,-1.55884 1.85627,-3.29089 0.77343,-10.56549 0.61894,-12.47074 -13.30335,-1.90526 -3.71253,2.77128 1.08284,10.73869 -0.46421,3.4641 0.46421,11.43151 1.08284,10.7387 -0.61895,16.97406 1.08284,19.57214 z m 113.19432,-82.09905 0.30947,-9.69947 -0.15473,-6.75499 -15.31429,0.17324 -6.03289,1.38564 -2.16568,-1.38564 h -8.81732 l -7.2704,1.03923 0.77343,12.29753 1.7016,2.25167 -1.7016,2.94447 0.15474,8.83345 -0.15474,13.50997 v 12.81715 l -0.46421,6.40857 1.23752,17.14727 -0.61895,1.38564 0.15474,9.35306 v 3.98371 l 1.39225,2.07845 -1.85634,4.50332 -0.15473,7.96742 0.15473,1.90526 -0.9281,11.77792 0.77343,7.10138 11.60175,0.17324 1.23752,-0.86603 h 5.41413 l 8.81738,1.03922 10.20951,0.17324 3.55786,-1.73205 0.61894,-6.40858 0.30948,-8.66023 -7.73448,-0.17324 -3.86728,1.38564 -12.37518,0.17323 -1.23751,-0.3464 -1.39225,-0.3464 -0.30947,-16.80086 -0.15474,-0.3464 0.46421,-1.55884 -0.9281,-5.02294 0.61894,-17.84008 h 2.47503 l 9.74548,0.3464 7.57981,0.3464 0.30947,-7.10139 0.92811,-5.19615 -2.01095,-4.33011 -7.88921,0.86602 -6.03289,0.3464 -5.72354,-0.3464 -0.30947,-6.75499 -1.54686,-1.38563 1.70153,-3.11769 0.77349,-5.19614 v -17.14726 l 0.30948,-4.33013 v -1.90524 h 1.39218 l 8.50797,0.3464 2.47503,-0.51964 0.46421,-0.17323 3.71253,1.38564 z m 74.15579,-16.62766 -1.39218,0.17324 h -5.72354 l -0.30948,1.21243 -0.9281,5.19614 -0.61894,1.03923 -8.35394,23.38265 0.7735,1.90524 -2.78444,2.25166 -8.35324,22.68983 -1.23757,0.86602 0.30947,10.9119 3.71254,8.83344 5.56887,14.72241 4.64133,10.73869 h 1.70159 l -0.46421,2.94448 5.41413,15.06881 0.15474,5.71576 14.07678,0.17323 0.30947,-1.90525 1.85633,-5.54256 8.35324,-22.1702 3.55786,-8.31383 0.15474,-2.77128 1.23751,-1.73204 7.57981,-17.14727 0.46421,-9.52626 -5.25946,-12.81715 -4.17662,-10.39228 h -1.54692 l -0.77343,-4.67653 -7.88922,-21.6506 -3.09378,-9.52626 z m 0.30947,105.65489 -6.80637,-19.91854 -3.09378,-7.1014 -3.09385,-2.42486 1.54692,-2.07846 -1.39218,-5.02294 -2.01101,-5.71576 -0.15473,-2.07846 5.10478,-14.8956 -1.08284,-2.77128 2.16568,-0.69282 8.50791,-25.11469 0.92817,3.29089 3.55786,10.56549 2.78443,1.90526 -1.39225,2.07845 6.03295,17.49368 1.85627,5.88896 1.23751,4.33012 -7.5798,20.78458 0.15473,3.11768 h 0.15474 l -1.85627,2.07846 -4.95005,18.18649 z m 69.91987,5.54255 5.41413,-12.29753 15.93305,-27.36635 2.78443,-5.19614 -0.15474,-12.64395 -2.78443,-3.98371 0.15474,0.3464 -11.75643,-17.49368 -4.02194,-7.96742 -5.41414,-6.06216 -1.70159,-5.71576 -9.59081,-14.7224 -8.19857,2.77127 -6.65164,2.25166 0.15474,6.40858 0.46421,9.00665 1.54692,2.25166 -1.54692,3.29089 0.15473,45.37964 0.92817,6.75498 -0.92817,38.79787 v -0.17324 l -0.30947,11.60472 10.05483,1.55884 5.10479,1.55885 z m -11.44708,-64.77857 -0.46421,-25.11468 0.92817,1.21243 15.31429,27.53955 3.09378,2.77128 0.61894,4.15691 2.78444,4.67653 -2.78444,5.02294 -5.10472,9.52626 -6.49703,14.02958 1.23757,1.55884 -2.78443,1.55884 -6.80638,12.29754 -0.15473,0.3464 0.15473,-9.35306 0.61895,-34.29454 -2.47503,-8.14062 z m 51.43443,5.88896 -0.46421,9.52627 -0.46421,5.36934 v 32.38929 6.23537 l 1.85627,2.94448 -1.85627,3.46409 -2.16567,15.41522 7.11578,0.17324 3.24846,0.17317 6.80638,-2.42487 0.15473,-6.40857 -0.30947,-3.2909 -0.30947,-2.59807 v -47.97772 l -1.7016,-1.21243 1.39219,-3.6373 -0.30948,-4.33011 -0.61894,-6.75499 0.46421,-8.83343 0.46421,-22.68984 0.77349,-4.33011 0.77343,-12.64395 -10.05483,-0.69282 -7.27046,0.51964 0.77349,8.66023 1.39218,0.86603 -1.23751,3.11768 0.46421,34.64095 z m 88.19903,60.10205 v -5.54255 l -1.08284,-37.93184 -1.70159,-5.71576 1.23751,-7.2746 1.54692,-42.60837 0.30948,-11.77792 -6.3423,-1.21243 -8.97206,0.17323 v 13.85638 l 1.54692,2.42487 -1.54692,5.36934 v 14.89561 l -5.10472,-9.35305 -1.23757,-0.69282 -3.86721,-6.92819 -13.92211,-21.47739 -12.22051,3.8105 v 9.00665 l 0.61895,18.01329 0.61895,9.87267 -0.61895,36.02659 1.39219,3.46409 -1.23752,5.02294 -0.9281,24.59507 v 2.94449 l 0.46421,1.55883 -1.08278,13.85638 6.65165,1.38564 9.12673,-0.3464 0.30947,-11.08511 -0.46421,-2.42487 0.15474,-18.01329 -1.39225,-6.58179 0.77349,-6.23536 0.30947,-39.49068 -1.85626,-2.25166 -0.15474,-0.3464 2.16561,-6.23538 v -9.35305 l 4.02195,6.23536 6.34229,9.87268 4.48603,6.06216 2.16568,3.81051 2.16561,2.59807 2.47509,4.67653 0.15474,18.01329 0.46421,3.29089 -0.46421,0.86602 -0.15474,16.62766 0.15474,16.45444 -0.15474,13.50998 5.25946,0.3464 8.50791,-0.17323 2.011,-5.88897 z m 92.02765,-51.44181 4.95005,-5.36935 4.79538,-6.58178 0.30947,-11.95113 -16.08778,-19.05252 -3.24845,-1.21243 -0.61895,-2.94448 -13.9221,-16.10804 -4.95012,2.07846 -7.42507,3.6373 0.30948,11.60472 0.77342,7.10139 v 28.40558 l -0.30947,0.86602 -0.15473,43.30118 1.85626,2.25166 -1.39224,5.36935 -1.70154,24.76828 8.972,1.03923 7.73448,-0.51964 -0.9281,-21.47738 -2.47509,-2.42487 2.47509,-4.15691 -0.30948,-11.95113 1.39219,-1.73205 10.36424,-13.16356 z m -21.19256,-11.77792 -1.7016,-3.4641 1.54693,-5.36934 -0.15474,-8.31383 0.15474,-12.29754 8.97199,11.25831 1.39225,1.03923 1.08284,2.42487 6.65164,8.31382 -2.47503,3.98371 -1.54692,4.33012 -1.70159,-0.51964 -7.73448,10.21908 -4.48603,5.36934 z m 60.33556,25.11468 6.18756,14.02959 1.39225,3.98371 5.72354,12.12433 1.85627,1.03923 -0.15474,2.94448 5.41413,13.85638 3.71254,6.75498 12.52991,-7.79421 0.15474,-5.02294 -5.10478,-6.06216 -2.78444,-6.58178 v 0.17323 l -2.16561,-5.02294 -0.92817,-0.51963 v -2.25166 l -6.18756,-11.77793 c -1.08284,-1.73205 -2.011,-2.59807 -3.24851,-4.15691 v -2.94448 c -0.92817,-2.07847 -2.78444,-5.02295 -3.86727,-7.4478 l 4.33135,-6.58179 2.6297,-3.6373 4.95011,-6.58177 7.11572,-9.69947 1.08284,-10.39228 -7.42513,-7.62102 c -0.15474,0 -2.6297,0.86603 -2.78444,0.69282 l -0.9281,-4.33012 -24.59569,-23.90225 -12.22051,5.54255 0.61895,14.89561 0.77342,33.0821 -1.23751,3.4641 0.30948,9.00665 0.61894,20.26495 v 6.75499 l 1.39225,2.25166 -2.32035,6.75499 -0.92817,27.53955 10.20957,1.03922 6.18756,-2.77127 -0.15474,-14.37599 -0.4642,-1.55885 -0.46421,-17.32048 -0.15474,-18.87931 z m -0.61895,-16.28124 -0.61894,-15.41522 -0.30947,-1.90526 -0.30948,-1.03923 -0.61894,-3.11768 1.23751,-3.29089 v -1.73205 l 0.30947,-13.33676 14.23152,15.76163 1.08277,0.86602 3.09384,4.33012 -1.70159,2.42487 c -2.011,3.11768 -5.72354,8.48703 -7.88922,11.43151 l -7.73448,10.7387 -1.08284,0.69281 z m 70.59661,-58.02359 -1.39219,0.17324 h -5.72354 l -0.30947,1.21243 -0.9281,5.19614 -0.61895,1.03923 -8.3533,23.38265 0.77349,1.90524 -2.78443,2.25166 -8.35324,22.68983 -1.23751,0.86602 0.30947,10.9119 3.71254,8.83344 5.56886,14.72241 4.64071,10.73869 h 1.70159 l -0.46421,2.94448 5.41413,15.06881 0.15474,5.71576 14.07678,0.17323 0.30947,-1.90525 1.85627,-5.54256 8.3533,-22.1702 3.55786,-8.31383 0.15474,-2.77128 1.23751,-1.73204 7.57981,-17.14727 0.46421,-9.52626 -5.25946,-12.81715 -4.17662,-10.39228 h -1.54692 l -0.77343,-4.67653 -7.88922,-21.6506 -3.09378,-9.52626 z m 0.30947,105.65489 -6.80638,-19.91854 -3.09378,-7.1014 -3.09384,-2.42486 1.54692,-2.07846 -1.39219,-5.02294 -2.011,-5.71576 -0.15474,-2.07846 5.10479,-14.8956 -1.08284,-2.77128 2.16568,-0.69282 8.50791,-25.11469 0.92816,3.29089 3.55786,10.56549 2.78444,1.90526 -1.39225,2.07845 6.03295,17.49368 1.85627,5.88896 1.23751,4.33012 -7.57981,20.78458 0.15474,3.11768 h 0.15473 l -1.85626,2.07846 -4.95005,18.18649 z m 47.3029,-53.00065 -0.77349,9.52626 0.15474,10.73869 0.15474,2.42487 v 6.75499 l -0.61895,18.87931 0.30947,1.55884 -2.32035,3.6373 -6.80631,5.02294 -6.80638,3.11768 v 9.00665 l 8.50797,7.10139 11.44702,-10.39228 -0.15474,-3.4641 4.1766,-0.69281 4.9501,-4.84973 2.4751,-4.84974 -1.8563,-29.79121 -1.2376,-5.19614 1.7016,-1.38564 -0.6189,-48.32412 1.8563,-15.24202 -2.011,-6.06217 -14.69555,0.34641 v 9.69946 l 2.78444,1.73204 -2.01101,2.77128 0.46421,29.2716 z m 76.00432,-36.02658 0.3094,-9.69947 -0.1547,-6.75499 -15.3143,0.17324 -6.0329,1.38564 -2.1656,-1.38564 h -8.8174 l -7.2704,1.03923 0.7735,12.29753 1.7016,2.25167 -1.7016,2.94447 0.1547,8.83345 -0.1547,13.50997 v 12.81715 l -0.4642,6.40857 1.2375,17.14727 -0.619,1.38564 0.1548,9.35306 v 3.98371 l 1.3922,2.07845 -1.8563,4.50332 -0.1547,7.96742 0.1547,1.90526 -0.9281,11.77792 0.7734,7.10138 11.6018,0.17324 1.2375,-0.86603 h 5.4142 l 8.8173,1.03922 10.2095,0.17324 3.5579,-1.73205 0.6189,-6.40858 0.3095,-8.66023 -7.7345,-0.17324 -3.8673,1.38564 -12.3752,0.17323 -1.2375,-0.3464 -1.3922,-0.3464 -0.3095,-16.80086 -0.1547,-0.3464 0.4642,-1.55884 -0.9281,-5.02294 0.6189,-17.84008 h 2.475 l 9.7455,0.3464 7.5798,0.3464 0.3095,-7.10139 0.9282,-5.19615 -2.011,-4.33011 -7.8892,0.86602 -6.0329,0.3464 -5.7235,-0.3464 -0.3095,-6.75499 -1.5468,-1.38563 1.7016,-3.11769 0.7734,-5.19614 v -17.14726 l 0.3095,-4.33013 v -1.90524 h 1.3922 l 8.5079,0.3464 2.4751,-0.51964 0.4642,-0.17323 3.7126,1.38564 z m 11.9884,59.75563 5.5689,11.25831 7.1157,7.44781 -1.2375,3.11768 11.7565,20.43816 0.3094,2.07845 5.2595,9.17986 5.2594,-3.8105 8.0439,-7.44781 -3.5579,-6.40858 -8.0438,-11.77792 -7.1158,-13.50997 -5.7236,-9.87267 -1.3921,-3.46409 -2.1657,-2.42487 -1.5469,-3.2909 -2.3203,-5.02294 2.0109,-4.15691 2.9391,-5.88896 5.1048,-9.00665 9.2814,-15.41522 0.7734,-4.67652 2.6298,-1.90526 4.3313,-6.75498 4.3313,-8.66024 -11.6017,-8.66023 -5.4142,7.10139 -0.1547,1.38564 -8.6627,15.93483 v 0.69282 l -3.8672,6.92819 v 4.15691 l -5.5689,6.06217 -10.0548,19.05252 0.1547,11.0851 z m 82.2307,-75.86367 -7.1158,0.51963 c -2.1656,0 -4.1766,0 -6.497,-0.17316 -1.2375,0 -2.6297,1.21243 -3.5578,1.21243 l -2.9392,-1.38564 -15.0048,-0.86602 -0.4642,14.20279 1.8562,2.07845 9.4361,-0.3464 c 0.4642,0 1.3922,-0.17324 2.475,-0.51964 l 0.7735,-0.86602 3.4032,0.51964 0.9281,7.10139 -0.6189,11.0851 0.9281,8.14063 -0.7735,35.33376 -0.7734,24.42187 1.3922,1.73205 -2.3204,10.91189 v 13.33677 l 8.1987,1.38564 4.3313,-0.86603 4.486,-2.77127 -1.2375,-12.29753 v -32.5625 l -1.8564,-3.29089 0.1548,-0.17317 1.3922,-10.39228 -0.1548,-13.33677 v -2.94448 c 0,-1.21243 -0.1547,-2.77128 -0.1547,-4.15691 -0.1547,-1.03923 -0.1547,-5.36935 -0.1547,-6.92819 l 0.3094,-12.81715 -0.6189,-3.81051 0.9281,-7.2746 h 4.7954 l 4.6407,0.3464 1.5469,0.51964 h 6.961 l 0.4642,-8.14062 -0.9281,-7.2746 z"
       fill="currentColor"
       id="path26"
       style="fill:#e3b261;fill-opacity:1;stroke-width:6.82024"
       inkscape:label="text" />
  </g>
</svg>
